<?xml version="1.0" encoding="utf-8"?>
<!-- Generator: Adobe Illustrator 24.3.0, SVG Export Plug-In . SVG Version: 6.00 Build 0)  -->
<svg version="1.1" id="Layer_1" xmlns="http://www.w3.org/2000/svg" xmlns:xlink="http://www.w3.org/1999/xlink" x="0px" y="0px"
	 viewBox="0 0 50 50" style="enable-background:new 0 0 50 50;" xml:space="preserve">
<g>
	<path d="M6.4,18.8C6.5,8.9,13.9,1.3,23,0.3c10-1.1,18.8,5.9,20.3,15.5c0.8,4.9-0.2,9.5-3.1,13.6c-4.4,6.4-8.8,12.7-13.2,19
		c-0.3,0.4-0.7,0.9-1.1,1.1c-1,0.6-2,0.2-2.8-0.9c-3.3-4.7-6.6-9.4-9.8-14.1c-1.4-2-2.8-4-4.1-6.1C7.3,25.5,6.5,22.2,6.4,18.8z
		 M17.3,18.7c0,4.3,3.4,7.7,7.7,7.8c4.3,0,7.8-3.4,7.8-7.7c0-4.3-3.4-7.8-7.7-7.8C20.8,11.1,17.3,14.5,17.3,18.7z"/>
</g>
</svg>
