<?xml version="1.0" encoding="utf-8"?>
<!-- Generator: Adobe Illustrator 26.0.1, SVG Export Plug-In . SVG Version: 6.00 Build 0)  -->
<svg version="1.1" id="Layer_1" xmlns="http://www.w3.org/2000/svg" xmlns:xlink="http://www.w3.org/1999/xlink" x="0px" y="0px"
	 viewBox="0 0 50 50" style="enable-background:new 0 0 50 50;" xml:space="preserve">
<style type="text/css">
	.st0{fill:#888888;}
</style>
<g>
	<path class="st0" d="M25.1,40.9c-8.8,0-15.9-7.1-15.9-15.9c0-8.7,7.1-15.8,15.9-15.8c8.8,0,15.9,7.1,15.9,15.9
		C40.9,33.8,33.8,40.9,25.1,40.9z"/>
	<path class="st0" d="M46.5,27.3c-0.4,0-0.8,0-1.2,0c-1.3-0.1-2.2-1-2.2-2.3c0-1.3,1-2.2,2.3-2.3c0.8,0,1.6,0,2.4,0
		c1.3,0,2.3,1,2.3,2.2c0,1.3-0.9,2.3-2.3,2.3C47.3,27.3,46.9,27.3,46.5,27.3z"/>
	<path class="st0" d="M3.5,27.3c-0.4,0-0.8,0-1.2,0C1,27.2,0,26.3,0,25c0-1.3,1-2.2,2.3-2.3c0.8,0,1.6,0,2.4,0c1.3,0,2.3,1,2.3,2.3
		c0,1.3-1,2.2-2.3,2.3C4.2,27.3,3.8,27.3,3.5,27.3z"/>
	<path class="st0" d="M27.3,3.5c0,0.5,0.1,1,0,1.4c-0.2,1.2-1.2,2-2.4,2c-1.1-0.1-2.1-1-2.1-2.2c0-0.8,0-1.6,0-2.5
		C22.8,1,23.8,0.1,25,0c1.2,0,2.2,0.9,2.3,2.1C27.4,2.6,27.3,3,27.3,3.5C27.3,3.5,27.3,3.5,27.3,3.5z"/>
	<path class="st0" d="M22.8,46.6c0-0.4,0-0.8,0-1.2c0.1-1.3,1-2.2,2.2-2.2c1.2,0,2.2,0.9,2.3,2.1c0.1,0.9,0.1,1.7,0,2.6
		C27.2,49.1,26.2,50,25,50c-1.2,0-2.2-1-2.2-2.3C22.8,47.3,22.8,46.9,22.8,46.6z"/>
	<path class="st0" d="M6.7,9.3c0-1.2,0.5-2,1.3-2.4c0.9-0.4,1.7-0.3,2.4,0.3c0.7,0.6,1.3,1.3,2,1.9c0.8,0.9,0.7,2.3-0.1,3.1
		c-0.9,0.8-2.2,0.9-3.1,0.1c-0.7-0.6-1.3-1.2-1.9-1.9C7,10,6.8,9.5,6.7,9.3z"/>
	<path class="st0" d="M43.4,9.3c-0.1,0.3-0.3,0.8-0.7,1.3c-0.5,0.6-1.1,1.1-1.7,1.7c-0.9,0.9-2.3,0.9-3.2,0c-0.9-0.9-0.9-2.3,0-3.2
		c0.6-0.6,1.2-1.2,1.8-1.7c0.7-0.6,1.5-0.8,2.4-0.4C42.9,7.3,43.3,8,43.4,9.3z"/>
	<path class="st0" d="M37.1,39.5c0.1-1,0.6-1.7,1.4-2.1c0.9-0.4,1.7-0.3,2.4,0.3c0.7,0.6,1.3,1.2,1.9,1.9c0.8,0.9,0.7,2.2-0.1,3.1
		c-0.8,0.8-2.2,0.9-3.1,0.1c-0.6-0.6-1.3-1.2-1.9-1.9C37.5,40.5,37.3,40,37.1,39.5z"/>
	<path class="st0" d="M10.6,37c1,0.2,1.7,0.6,2.1,1.4c0.4,0.9,0.3,1.7-0.3,2.4c-0.6,0.7-1.3,1.3-1.9,1.9c-0.9,0.8-2.2,0.7-3.1-0.1
		c-0.8-0.8-0.9-2.2-0.1-3.1c0.6-0.7,1.2-1.3,1.9-1.9C9.6,37.4,10.1,37.3,10.6,37z"/>
</g>
</svg>
